<svg width="27" height="20" viewBox="0 0 27 20" fill="none" xmlns="http://www.w3.org/2000/svg">
<path d="M23.8506 0.5C25.1709 0.5 26.2881 1.61719 26.2881 2.9375C26.2881 3.75 25.8818 4.46094 25.2725 4.91797L14.2529 13.1953C13.6436 13.6523 12.8818 13.6523 12.2725 13.1953L1.25293 4.91797C0.643555 4.46094 0.288086 3.75 0.288086 2.9375C0.288086 1.61719 1.35449 0.5 2.72559 0.5H23.8506ZM11.3076 14.5156C12.4756 15.3789 14.0498 15.3789 15.2178 14.5156L26.2881 6.1875V16.75C26.2881 18.5781 24.8154 20 23.0381 20H3.53809C1.70996 20 0.288086 18.5781 0.288086 16.75V6.1875L11.3076 14.5156Z" fill="#001342"/>
</svg>
