<svg width="224" height="67" viewBox="0 0 224 67" fill="none" xmlns="http://www.w3.org/2000/svg">
<path d="M174.305 28.7148C174.305 29.5619 174.5 30.3669 174.849 31.0798C175.712 32.8577 177.522 34.0779 179.613 34.0779C176.882 34.0779 174.633 36.1619 174.338 38.8413V38.8497C174.318 39.0426 174.305 39.2438 174.305 39.4409C174.305 39.2396 174.297 39.0426 174.272 38.8497V38.8413C173.977 36.1619 171.728 34.0779 168.997 34.0779C171.089 34.0779 172.898 32.8577 173.762 31.0798C174.11 30.3669 174.305 29.5661 174.305 28.7148Z" fill="#8ACC50"/>
<path d="M1.7348 37.2935C0.576889 34.1486 0 30.5677 0 26.7645C0 22.9613 0.576889 19.3762 1.7348 16.2355C5.35378 6.28942 14.1854 0.00390625 25.9803 0.00390625C37.7752 0.00390625 46.6069 6.29361 50.2259 16.2355C51.3838 19.3804 51.9648 22.9655 51.9648 26.7645C51.9648 30.5635 51.3838 34.1486 50.2259 37.2935C46.6816 47.1641 37.9205 53.5293 26.055 53.5293C14.1896 53.5293 5.35378 47.4577 1.7348 37.2935ZM10.637 34.2241C13.0275 40.8786 18.4518 45.0466 25.9803 45.0466C33.5088 45.0466 38.8626 41.0254 41.3236 34.2241C42.1205 31.9556 42.5521 29.4691 42.5521 26.7645C42.5521 24.0599 42.1163 21.5734 41.3236 19.3049C38.9331 12.6504 33.5047 8.48243 25.9803 8.48243C18.456 8.48243 13.0234 12.6504 10.637 19.3049C9.84015 21.5734 9.40438 24.0558 9.40438 26.7645C9.40438 29.4733 9.84015 31.9556 10.637 34.2241Z" fill="#8ACC50"/>
<path d="M48.9478 59.2281H50.6825C53.7246 59.2281 54.7373 57.6934 54.7373 54.6198V16.8145H63.2784V54.6911C63.2784 62.44 59.2984 66.4654 51.4088 66.4654H48.9478V59.2239V59.2281Z" fill="#8ACC50"/>
<path d="M68.8854 46.6532C66.7148 43.5838 65.6274 39.5584 65.6274 34.7363C65.6274 29.9142 67.0759 25.6666 69.1759 22.5972C72.2138 18.1357 77.136 15.7959 82.855 15.7959C93.4214 15.7959 99.4309 22.5259 99.4309 34.0025V36.9293H74.1727C74.4632 39.3446 75.0401 41.3154 76.1275 42.85C77.6465 45.0431 79.9623 46.2884 83.3654 46.2884C87.055 46.2884 89.8066 44.607 90.8939 41.4621H99.4351C98.2066 48.4814 91.836 53.3832 83.5854 53.3832C76.7085 53.3832 71.8611 51.0434 68.8937 46.6532H68.8854ZM90.8151 30.7109C90.5993 25.5198 87.7771 22.7397 82.9255 22.7397C80.1034 22.7397 77.6423 23.9851 76.0486 26.2494C75.2518 27.4906 74.6749 28.954 74.3844 30.7109H90.8151Z" fill="#8ACC50"/>
<path d="M101.664 16.819H110.205L108.034 26.3249H109.263C111.072 19.5236 114.475 15.7959 120.12 15.7959C125.187 15.7959 129.383 19.3768 129.383 26.3249H130.615C132.425 18.6472 136.695 15.7959 142.049 15.7959C149.358 15.7959 153.267 20.5509 153.267 29.6165V52.3559H144.726V31.3692C144.726 26.3249 142.771 23.6916 139.011 23.6916C134.38 23.6916 131.773 27.4193 131.773 33.3442V52.3559H123.232V31.3692C123.232 26.3249 120.771 23.6916 117.368 23.6916C112.666 23.6916 110.205 27.348 110.205 33.3442V52.3559H101.664V16.819Z" fill="#8ACC50"/>
<path d="M163.643 42.8497H162.415L164.585 52.3556H156.044V0H164.585V16.8187L162.415 26.3246H163.643C165.668 19.4478 169.939 15.7956 176.235 15.7956C181.443 15.7956 185.788 18.0641 188.54 22.1566C190.711 25.3014 191.798 29.5407 191.798 34.5892C191.798 39.6378 190.711 43.877 188.54 47.0219C185.788 51.1186 181.447 53.3829 176.235 53.3829C169.939 53.3829 165.668 49.7265 163.643 42.8539V42.8497ZM166.465 42.1914C168.129 44.5312 170.661 45.7723 173.774 45.7723C176.886 45.7723 179.418 44.5312 181.082 42.1914C182.385 40.3632 183.107 37.7299 183.107 34.585C183.107 31.4402 182.381 28.8069 181.082 26.9787C179.418 24.6389 176.886 23.3977 173.774 23.3977C170.661 23.3977 168.129 24.6389 166.465 26.9787C165.162 28.8069 164.44 31.4402 164.44 34.585C164.44 37.7299 165.166 40.3632 166.465 42.1914Z" fill="#8ACC50"/>
<path d="M195.79 50.3803C194.055 48.6275 193.113 46.2123 193.113 43.2854C193.113 40.2161 193.98 37.8008 195.719 36.0481C197.89 33.8551 201.148 32.6097 205.489 32.3204L214.972 31.6621V29.2468C214.972 25.3723 212.656 23.0326 207.95 23.0326C201.148 23.0326 201.073 28.3704 201.073 29.0288V29.3223H192.387V29.0288C192.387 28.0056 192.457 15.791 208.166 15.791C218.296 15.791 223.509 20.6173 223.509 29.2468V52.3552H214.968L216.993 42.8494H215.765C213.955 50.0154 210.121 53.3783 203.679 53.3783C200.422 53.3783 197.674 52.2797 195.79 50.3803ZM202.883 45.4827C203.679 46.2878 204.837 46.6525 206.282 46.6525C212.432 46.6525 214.893 40.8031 214.968 37.5115L207.514 38.3166C205.414 38.5346 203.895 39.1217 202.953 40.0693C202.227 40.8031 201.866 41.7508 201.866 42.8494C201.866 44.0192 202.227 44.8243 202.878 45.4827H202.883Z" fill="#8ACC50"/>
<path d="M64.2452 5.35045C64.2452 2.39548 61.8742 0 58.9495 0C56.0248 0 53.6538 2.39548 53.6538 5.35045C53.6538 8.30542 56.0248 10.7009 58.9495 10.7009C61.8742 10.7009 64.2452 8.30542 64.2452 5.35045Z" fill="#8ACC50"/>
</svg>
